<?xml version="1.0" encoding="UTF-8" standalone="no"?>
<!-- Created with Inkscape (http://www.inkscape.org/) -->

<svg
   xmlns:dc="http://purl.org/dc/elements/1.1/"
   xmlns:cc="http://creativecommons.org/ns#"
   xmlns:rdf="http://www.w3.org/1999/02/22-rdf-syntax-ns#"
   xmlns:svg="http://www.w3.org/2000/svg"
   xmlns="http://www.w3.org/2000/svg"
   xmlns:sodipodi="http://sodipodi.sourceforge.net/DTD/sodipodi-0.dtd"
   xmlns:inkscape="http://www.inkscape.org/namespaces/inkscape"
   width="64mm"
   height="64mm"
   viewBox="0 0 64 64"
   version="1.1"
   id="svg8"
   sodipodi:docname="ic_launcher_foreground.svg"
   inkscape:version="0.92.2 2405546, 2018-03-11">
  <defs
     id="defs2" />
  <sodipodi:namedview
     id="base"
     pagecolor="#ffffff"
     bordercolor="#666666"
     borderopacity="1.0"
     inkscape:pageopacity="0.0"
     inkscape:pageshadow="2"
     inkscape:zoom="1.100708"
     inkscape:cx="-53.200771"
     inkscape:cy="-70.839688"
     inkscape:document-units="mm"
     inkscape:current-layer="layer1"
     showgrid="false"
     inkscape:showpageshadow="false"
     borderlayer="true"
     inkscape:window-width="1680"
     inkscape:window-height="985"
     inkscape:window-x="0"
     inkscape:window-y="0"
     inkscape:window-maximized="1"
     inkscape:pagecheckerboard="true" />
  <metadata
     id="metadata5">
    <rdf:RDF>
      <cc:Work
         rdf:about="">
        <dc:format>image/svg+xml</dc:format>
        <dc:type
           rdf:resource="http://purl.org/dc/dcmitype/StillImage" />
        <dc:title />
      </cc:Work>
    </rdf:RDF>
  </metadata>
  <g
     inkscape:label="Ebene 1"
     inkscape:groupmode="layer"
     id="layer1"
     transform="translate(0,-233)">
    <path
       style="fill:#026d8b;fill-opacity:0.43142862;stroke:none;stroke-width:0.26458332px;stroke-linecap:butt;stroke-linejoin:miter;stroke-opacity:1"
       d="m 18.365254,275.28832 35.583286,35.27688 22.698829,0.51176 -0.156841,-22.38431 -32.139413,-35.23246 -18.932176,-3.19293 -8.234861,10.56347 z"
       id="path990"
       inkscape:connector-curvature="0"
       sodipodi:nodetypes="cccccccc" />
    <path
       style="fill:#ffffff;fill-opacity:1;fill-rule:nonzero;stroke:none;stroke-width:7.39548206;stroke-linecap:round;stroke-miterlimit:4;stroke-dasharray:none;stroke-dashoffset:0;stroke-opacity:1"
       d="M 120.94531 56.294922 A 64.649762 64.649762 0 0 0 56.294922 120.94531 A 64.649762 64.649762 0 0 0 120.94531 185.59375 A 64.649762 64.649762 0 0 0 185.59375 120.94531 A 64.649762 64.649762 0 0 0 120.94531 56.294922 z M 120.94531 73.214844 A 47.729706 47.729706 0 0 1 168.67383 120.94531 A 47.729706 47.729706 0 0 1 120.94531 168.67383 A 47.729706 47.729706 0 0 1 73.214844 120.94531 A 47.729706 47.729706 0 0 1 120.94531 73.214844 z "
       id="path830"
       transform="matrix(0.26458333,0,0,0.26458333,0,233)" />
  </g>
</svg>
